<?xml version="1.0" encoding="UTF-8"?>
<svg width="636px" height="344px" viewBox="0 0 636 344" version="1.1" xmlns="http://www.w3.org/2000/svg" xmlns:xlink="http://www.w3.org/1999/xlink">
    <!-- Generator: Sketch 53.2 (72643) - https://sketchapp.com -->
    <title>main demo</title>
    <desc>Created with Sketch.</desc>
    <g id="Page-1" stroke="none" stroke-width="1" fill="none" fill-rule="evenodd">
        <g id="Artboard" transform="translate(-367.000000, -101.000000)">
            <g id="main-demo" transform="translate(367.000000, 101.000000)">
                <g id="d">
                    <rect id="Rectangle" stroke="#979797" x="43.5" y="35.5" width="131" height="131"></rect>
                    <rect id="Rectangle-Copy" stroke="#979797" x="1.5" y="1.5" width="131" height="131"></rect>
                    <text id="D" font-family="Futura-Medium, Futura" font-size="72" font-weight="400" letter-spacing="5.316362" fill="#A0A0A0">
                        <tspan x="67" y="110">D</tspan>
                    </text>
                    <path d="M43,35 L1,1" id="Line" stroke="#979797" stroke-linecap="square"></path>
                    <path d="M175,35 L133,1" id="Line-2" stroke="#979797" stroke-linecap="square"></path>
                    <path d="M175,167 L133,133" id="Line-3" stroke="#979797" stroke-linecap="square"></path>
                    <path d="M43,167 L0,132" id="Line-4" stroke="#979797" stroke-linecap="square"></path>
                </g>
                <g id="d-copy" transform="translate(154.000000, 0.000000)">
                    <rect id="Rectangle" stroke="#979797" x="43.5" y="35.5" width="131" height="131"></rect>
                    <rect id="Rectangle-Copy" stroke="#979797" x="1.5" y="1.5" width="131" height="131"></rect>
                    <text id="R" font-family="Futura-Medium, Futura" font-size="72" font-weight="400" letter-spacing="5.316362" fill="#A0A0A0">
                        <tspan x="67" y="110">R</tspan>
                    </text>
                    <path d="M43,35 L1,1" id="Line" stroke="#979797" stroke-linecap="square"></path>
                    <path d="M175,35 L133,1" id="Line-2" stroke="#979797" stroke-linecap="square"></path>
                    <path d="M175,167 L133,133" id="Line-3" stroke="#979797" stroke-linecap="square"></path>
                    <path d="M43,167 L0,132" id="Line-4" stroke="#979797" stroke-linecap="square"></path>
                </g>
                <g id="d-copy-2" transform="translate(307.000000, 0.000000)">
                    <rect id="Rectangle" stroke="#979797" x="43.5" y="35.5" width="131" height="131"></rect>
                    <rect id="Rectangle-Copy" stroke="#979797" x="1.5" y="1.5" width="131" height="131"></rect>
                    <text id="O" font-family="Futura-Medium, Futura" font-size="72" font-weight="400" letter-spacing="5.316362" fill="#A0A0A0">
                        <tspan x="57" y="110">O</tspan>
                    </text>
                    <path d="M43,35 L1,1" id="Line" stroke="#979797" stroke-linecap="square"></path>
                    <path d="M175,35 L133,1" id="Line-2" stroke="#979797" stroke-linecap="square"></path>
                    <path d="M175,167 L133,133" id="Line-3" stroke="#979797" stroke-linecap="square"></path>
                    <path d="M43,167 L0,132" id="Line-4" stroke="#979797" stroke-linecap="square"></path>
                </g>
                <g id="d-copy-5" transform="translate(154.000000, 176.000000)">
                    <rect id="Rectangle" stroke="#979797" x="43.5" y="35.5" width="131" height="131"></rect>
                    <rect id="Rectangle-Copy" stroke="#979797" x="1.5" y="1.5" width="131" height="131"></rect>
                    <text id="M" font-family="Futura-Medium, Futura" font-size="72" font-weight="400" letter-spacing="5.316362" fill="#A0A0A0">
                        <tspan x="58" y="110">M</tspan>
                    </text>
                    <path d="M43,35 L1,1" id="Line" stroke="#979797" stroke-linecap="square"></path>
                    <path d="M175,35 L133,1" id="Line-2" stroke="#979797" stroke-linecap="square"></path>
                    <path d="M175,167 L133,133" id="Line-3" stroke="#979797" stroke-linecap="square"></path>
                    <path d="M43,167 L0,132" id="Line-4" stroke="#979797" stroke-linecap="square"></path>
                </g>
                <g id="d-copy-4" transform="translate(307.000000, 176.000000)">
                    <rect id="Rectangle" stroke="#979797" x="43.5" y="35.5" width="131" height="131"></rect>
                    <rect id="Rectangle-Copy" stroke="#979797" x="1.5" y="1.5" width="131" height="131"></rect>
                    <text id="E" font-family="Futura-Medium, Futura" font-size="72" font-weight="400" letter-spacing="5.316362" fill="#A0A0A0">
                        <tspan x="67" y="110">E</tspan>
                    </text>
                    <path d="M43,35 L1,1" id="Line" stroke="#979797" stroke-linecap="square"></path>
                    <path d="M175,35 L133,1" id="Line-2" stroke="#979797" stroke-linecap="square"></path>
                    <path d="M175,167 L133,133" id="Line-3" stroke="#979797" stroke-linecap="square"></path>
                    <path d="M43,167 L0,132" id="Line-4" stroke="#979797" stroke-linecap="square"></path>
                </g>
                <g id="d-copy-3" transform="translate(461.000000, 0.000000)">
                    <rect id="Rectangle" stroke="#979797" x="43.5" y="35.5" width="131" height="131"></rect>
                    <rect id="Rectangle-Copy" stroke="#979797" x="1.5" y="1.5" width="131" height="131"></rect>
                    <text id="P" font-family="Futura-Medium, Futura" font-size="72" font-weight="400" letter-spacing="5.316362" fill="#A0A0A0">
                        <tspan x="67" y="110">P</tspan>
                    </text>
                    <path d="M43,35 L1,1" id="Line" stroke="#979797" stroke-linecap="square"></path>
                    <path d="M175,35 L133,1" id="Line-2" stroke="#979797" stroke-linecap="square"></path>
                    <path d="M175,167 L133,133" id="Line-3" stroke="#979797" stroke-linecap="square"></path>
                    <path d="M43,167 L0,132" id="Line-4" stroke="#979797" stroke-linecap="square"></path>
                </g>
            </g>
        </g>
    </g>
</svg>